<?xml version="1.0" standalone="no"?>
<!DOCTYPE svg PUBLIC "-//W3C//DTD SVG 20010904//EN"
 "http://www.w3.org/TR/2001/REC-SVG-20010904/DTD/svg10.dtd">
<svg version="1.0" xmlns="http://www.w3.org/2000/svg"
 width="738.000000pt" height="392.000000pt" viewBox="0 0 738.000000 392.000000"
 preserveAspectRatio="xMidYMid meet">

<g transform="translate(0.000000,392.000000) scale(0.100000,-0.100000)"
fill="#efefef" stroke="none">
<path d="M0 1950 l0 -1950 371 0 c293 0 369 3 363 13 -6 9 -4 9 7 -1 18 -17
245 -17 252 1 4 9 6 9 6 0 1 -7 10 -13 22 -13 13 0 18 4 13 13 -6 10 -4 10 7
0 9 -9 56 -13 163 -12 98 0 143 3 129 9 -12 5 -27 19 -33 30 -16 29 5 78 37
91 32 12 90 12 112 -1 13 -7 101 19 346 101 180 61 347 114 369 118 23 5 50
12 61 16 19 6 19 6 2 -8 -17 -14 -13 -16 45 -34 l63 -19 240 80 240 81 28 57
c17 36 38 63 55 72 15 7 110 41 212 75 102 34 189 66 194 71 19 18 -2 21 -45
5 -24 -8 -180 -61 -346 -117 -180 -60 -303 -106 -303 -114 0 -26 -60 -64 -102
-64 -48 0 -103 46 -91 77 17 48 71 69 138 52 38 -10 61 -4 375 101 184 61 339
116 344 120 18 17 -22 22 -52 6 -34 -17 -33 -17 -169 19 l-100 27 -79 -24
c-64 -19 -81 -29 -92 -50 -7 -15 -21 -30 -32 -33 -11 -4 -20 -11 -20 -16 0 -5
-18 -9 -39 -9 -28 0 -49 8 -70 26 -37 31 -38 43 -7 77 32 34 69 43 116 27 34
-11 46 -10 116 14 98 32 120 32 228 1 47 -14 95 -25 105 -25 10 0 74 18 142
40 176 58 226 62 198 20 -8 -13 -11 -12 -23 3 -12 15 -15 15 -25 3 -7 -8 -18
-13 -25 -10 -8 3 -30 -6 -51 -20 -21 -15 -55 -31 -77 -38 -21 -6 -37 -16 -35
-22 5 -14 17 -12 142 29 120 39 163 37 135 -5 -9 -13 -12 -13 -24 3 -17 21
-26 22 -26 1 0 -11 -5 -14 -16 -10 -22 8 -70 -4 -54 -14 11 -7 -84 -50 -110
-50 -6 0 -10 -4 -10 -10 0 -13 32 -13 62 -1 13 6 60 21 105 35 84 25 129 25
119 -1 -3 -8 -6 -16 -6 -19 0 -13 -30 11 -30 25 -1 13 -3 12 -12 -4 -16 -29
-18 -31 -27 -17 -6 10 -15 10 -35 2 -15 -5 -24 -14 -21 -20 3 -5 2 -10 -4 -10
-5 0 -22 -5 -38 -11 -40 -17 -353 -126 -444 -156 -73 -23 -77 -26 -89 -64 -23
-69 -55 -89 -227 -148 -87 -30 -160 -55 -162 -57 -1 -1 0 -7 3 -12 5 -9 378
111 418 134 8 5 26 33 38 62 24 55 41 69 115 92 22 7 96 32 165 55 192 66 330
108 337 102 8 -8 -7 -28 -17 -22 -11 7 -71 -16 -65 -25 3 -5 -12 -14 -32 -21
-21 -6 -47 -17 -58 -23 -11 -6 -27 -12 -35 -13 -14 -1 -233 -76 -308 -105 -25
-9 -38 -24 -54 -59 -11 -26 -28 -55 -37 -63 -18 -16 -96 -46 -308 -119 -68
-23 -123 -45 -123 -50 0 -4 19 -37 41 -73 31 -48 46 -64 58 -59 8 3 85 30 169
58 l154 52 29 57 c25 49 27 61 17 83 -6 14 -15 25 -20 25 -4 0 -8 5 -8 10 0
18 16 10 30 -15 13 -24 14 -24 47 43 45 88 77 115 171 142 42 12 97 31 122 41
66 26 238 77 288 85 34 5 42 4 42 -9 0 -25 -22 -32 -37 -11 -13 18 -14 18 -19
-4 -7 -24 -20 -29 -26 -10 -3 7 -14 9 -34 3 -25 -6 -26 -8 -10 -14 14 -6 4
-13 -45 -30 -35 -13 -68 -27 -73 -32 -20 -18 35 -8 114 21 96 35 110 37 110
10 0 -21 -16 -28 -22 -9 -4 13 -44 -4 -63 -26 -5 -7 -31 -20 -57 -29 -27 -10
-48 -22 -48 -26 0 -5 -8 -8 -17 -8 -10 1 -63 -14 -119 -32 l-101 -33 -58 -121
c-31 -67 -81 -169 -111 -228 -53 -107 -53 -108 -28 -108 21 0 30 12 64 82 25
54 36 86 30 92 -15 15 -12 30 3 17 11 -8 24 12 65 98 29 60 52 112 52 116 0
21 57 49 174 86 72 23 162 52 199 65 82 29 77 29 77 3 0 -17 -3 -19 -13 -11
-17 14 -72 0 -72 -17 0 -8 -22 -22 -50 -33 -27 -11 -52 -23 -55 -26 -3 -4 -16
-8 -30 -9 -35 -2 -80 -21 -80 -33 0 -15 26 -12 78 9 26 10 102 35 169 55 112
33 153 37 153 16 0 -15 -24 -24 -28 -12 -5 17 -32 15 -32 -3 0 -17 -16 -21
-22 -5 -1 5 -14 7 -27 3 -23 -6 -23 -7 -6 -13 16 -6 12 -9 -20 -20 -58 -18
-105 -41 -105 -51 0 -12 67 1 138 28 79 29 92 29 84 1 -3 -12 -7 -17 -10 -10
-5 15 -37 16 -64 1 -14 -8 -17 -13 -9 -18 7 -5 -6 -13 -31 -20 -24 -7 -56 -19
-73 -26 -16 -8 -50 -20 -75 -28 -32 -11 -46 -21 -48 -36 -2 -12 -7 -21 -12
-21 -12 0 -22 -34 -14 -54 3 -9 14 -16 23 -16 14 1 14 2 -1 14 -10 7 -15 16
-11 19 3 4 12 2 20 -4 10 -9 13 -8 13 1 0 10 3 10 15 0 12 -10 15 -9 15 6 0
13 3 15 11 7 15 -15 2 -35 -19 -31 -10 2 -22 -3 -29 -12 -10 -12 -15 -13 -32
-3 -19 12 -23 7 -57 -63 -34 -69 -36 -77 -20 -86 13 -7 14 -13 6 -23 -6 -8
-17 -12 -24 -9 -8 3 -16 -1 -19 -8 -4 -11 17 -14 96 -17 93 -2 99 -1 87 14
-12 15 -12 16 3 13 12 -2 25 10 40 36 21 38 28 42 182 97 88 32 170 58 183 59
15 0 22 6 22 19 0 11 5 23 10 26 6 3 10 -1 10 -10 0 -28 31 -30 51 -4 l19 24
6 -22 c4 -13 10 -23 15 -23 13 0 11 14 -3 28 -9 9 -9 15 -1 23 7 7 19 -3 42
-36 31 -45 40 -85 21 -85 -5 0 -10 -7 -10 -15 0 -21 -30 -31 -41 -14 -6 11
-11 11 -21 1 -6 -6 -18 -12 -26 -12 -15 0 -323 -107 -331 -115 -2 -3 121 -5
274 -5 238 0 276 2 266 14 -8 9 -9 16 -2 20 6 4 16 -2 23 -14 12 -19 23 -20
175 -20 90 0 163 3 163 6 0 3 -13 22 -29 42 -27 35 -105 143 -181 250 -140
197 -167 231 -181 232 -8 0 -48 -11 -87 -24 l-71 -25 -38 52 c-20 29 -65 90
-99 137 -34 47 -99 135 -143 195 -44 61 -84 115 -89 120 -24 30 -92 135 -92
144 0 6 -15 11 -34 11 -45 0 -54 16 -25 46 l22 24 -41 0 c-39 0 -69 19 -44 28
7 2 12 8 12 14 0 6 -6 6 -15 -2 -8 -7 -15 -18 -15 -24 0 -13 35 -46 49 -46 5
0 7 -8 4 -18 -7 -29 32 -56 90 -61 4 -1 7 -7 7 -15 0 -7 12 -26 26 -41 14 -15
23 -34 20 -42 -3 -8 -2 -11 3 -8 10 6 61 -55 61 -73 0 -6 -9 -16 -20 -22 -15
-8 -21 -7 -28 7 -5 10 -7 25 -5 33 4 12 3 12 -5 1 -12 -16 -27 3 -16 21 4 7 3
8 -4 4 -6 -4 -26 15 -46 46 -29 42 -33 55 -23 67 10 14 10 14 -4 4 -14 -11
-25 1 -85 90 -38 56 -72 104 -76 105 -16 7 -7 31 15 37 12 4 37 13 55 21 18 9
43 13 55 11 18 -4 18 -4 -5 -6 -16 0 -28 -6 -28 -12 0 -5 -4 -8 -9 -4 -5 3
-12 1 -16 -5 -3 -5 3 -10 14 -10 12 0 21 5 21 10 0 6 5 10 10 10 6 0 10 -7 10
-15 0 -8 5 -15 11 -15 5 0 7 4 4 10 -3 5 -1 10 4 10 17 0 13 -26 -6 -41 -9 -8
-14 -9 -10 -2 5 7 0 9 -13 6 -28 -7 -25 -23 4 -23 13 0 33 -3 43 -7 15 -6 16
-5 5 9 -10 13 -10 18 -1 24 8 5 10 3 4 -7 -5 -8 0 -7 12 3 21 19 63 24 63 8 0
-16 13 -13 164 34 77 25 205 65 284 90 l143 45 33 -20 c51 -30 143 -30 184 0
27 19 32 28 32 65 l0 42 78 23 c42 12 86 26 97 31 52 23 126 41 137 34 22 -14
32 -12 53 8 11 11 16 19 10 18 -36 -7 -95 1 -95 14 0 19 46 29 70 16 21 -11
124 1 165 20 11 5 52 18 90 30 39 11 90 28 115 36 39 14 364 120 615 201 44
14 97 25 118 24 27 -1 37 2 37 14 0 10 -10 15 -34 15 -19 0 -38 4 -41 10 -9
15 46 24 66 12 13 -8 26 -9 45 -2 22 9 25 8 20 -5 -3 -8 -1 -15 4 -15 6 0 10
5 10 11 0 6 7 8 16 5 8 -3 12 -2 9 4 -3 5 11 12 32 16 21 4 46 11 56 16 11 5
17 5 17 -2 0 -5 4 -10 10 -10 5 0 9 5 7 12 -1 6 7 13 18 15 11 1 14 0 7 -3
-10 -5 -10 -9 0 -22 9 -10 9 -13 1 -9 -9 5 -10 -2 -6 -26 l5 -34 -88 -28
c-136 -42 -387 -125 -409 -134 -21 -10 -85 -31 -325 -107 -171 -55 -746 -247
-875 -293 -49 -18 -119 -49 -155 -69 -36 -20 -102 -49 -148 -64 -107 -36 -134
-50 -166 -88 -23 -28 -26 -40 -26 -114 l0 -82 51 -75 c28 -41 55 -75 60 -77 5
-2 9 -8 9 -13 0 -6 -4 -7 -10 -4 -5 3 -10 1 -10 -5 0 -7 6 -10 14 -7 9 4 24
-10 42 -36 22 -34 193 -267 287 -391 25 -32 82 -111 212 -291 l90 -125 418 0
c362 0 418 2 423 15 8 19 40 19 48 0 4 -12 25 -15 100 -15 l95 0 -15 28 c-19
38 -18 55 9 80 52 49 162 10 201 -72 l17 -35 659 -1 660 0 0 92 c0 80 -3 95
-22 115 -20 22 -23 22 -40 6 -28 -25 -44 -3 -24 35 17 33 44 48 60 32 22 -22
26 -6 26 93 0 100 -1 104 -24 115 -24 11 -68 63 -78 92 -7 20 8 60 23 60 8 0
8 -4 -1 -15 -17 -20 -6 -57 29 -94 43 -46 51 -40 51 38 l0 70 -32 4 -33 4 33
1 32 2 0 85 c0 81 -1 85 -24 91 -31 7 -103 82 -111 115 -10 41 21 71 83 77
l52 5 0 818 0 819 -143 142 c-79 79 -188 186 -243 239 l-99 96 -115 22 c-128
25 -167 37 -178 57 -8 14 -91 102 -311 329 -86 89 -178 184 -204 213 -38 41
-54 52 -79 52 -20 0 -39 9 -56 27 -23 25 -23 27 -6 40 21 16 87 17 115 3 10
-6 19 -20 19 -32 0 -21 0 -21 -21 -2 -22 19 -22 19 -11 -1 6 -11 60 -70 119
-131 59 -61 193 -200 297 -307 l189 -195 116 -22 c64 -12 127 -28 141 -35 14
-7 125 -112 247 -233 169 -167 222 -215 221 -197 -1 13 -4 22 -7 20 -2 -3 -25
18 -50 47 -91 100 -163 168 -181 168 -6 0 -10 4 -10 9 0 5 -12 23 -27 39 -16
16 -48 53 -73 81 -54 62 -115 101 -160 101 -27 0 -42 10 -94 67 -33 37 -99
106 -146 154 -47 47 -141 143 -208 213 -88 89 -131 126 -147 126 -18 0 -22 -4
-18 -20 4 -14 0 -20 -12 -20 -13 0 -16 6 -11 25 4 14 2 25 -4 25 -5 0 -10 9
-10 20 0 18 3 19 21 9 12 -6 32 -9 45 -6 20 3 40 -12 112 -87 362 -376 466
-476 501 -482 20 -3 44 -8 53 -12 9 -4 109 -98 222 -208 158 -155 206 -197
206 -180 0 14 -20 41 -52 72 -67 64 -257 254 -334 335 -49 51 -67 64 -93 65
-38 1 -71 28 -55 44 8 8 15 6 24 -5 16 -19 44 -19 59 -1 24 28 -60 37 -91 9
-15 -14 -18 -14 -18 -1 0 8 8 22 18 31 38 34 142 11 142 -31 0 -17 -4 -23 -15
-18 -35 13 -30 7 251 -279 55 -56 114 -113 132 -128 l32 -27 0 132 0 132 -66
67 c-41 41 -65 73 -61 82 3 7 26 20 52 27 44 12 49 12 61 -5 12 -17 14 -12 14
42 l0 61 -33 6 c-47 9 -80 41 -67 66 11 20 71 37 89 25 7 -4 11 9 11 36 0 35
-7 49 -38 83 -32 34 -46 41 -77 42 -22 1 -41 7 -43 13 -2 6 -17 11 -33 11 -37
0 -37 11 1 38 56 42 176 17 157 -32 -4 -10 -12 -14 -19 -10 -7 4 0 -7 16 -24
17 -18 31 -32 33 -32 2 0 3 59 3 130 l0 130 -980 0 c-905 0 -980 -1 -980 -17
0 -14 -2 -14 -20 2 -15 14 -20 15 -20 4 0 -8 21 -34 45 -58 48 -48 52 -58 32
-75 -8 -6 -44 -78 -82 -161 -37 -82 -78 -169 -91 -192 l-23 -42 36 -38 c19
-21 62 -69 95 -108 34 -38 89 -100 123 -136 56 -59 69 -67 112 -74 26 -3 95
-18 152 -31 57 -14 138 -29 180 -34 96 -11 278 -48 305 -62 22 -11 53 -42 231
-234 61 -66 134 -144 163 -175 28 -31 52 -62 52 -69 0 -10 -3 -10 -15 0 -8 6
-19 9 -24 5 -7 -4 -8 1 -4 11 5 14 3 16 -11 11 -10 -4 -15 -3 -11 3 9 14 -22
43 -37 34 -7 -4 -10 -4 -6 1 13 14 -11 45 -30 39 -13 -5 -14 -4 -3 4 11 8 11
11 0 18 -8 5 -17 9 -21 9 -5 0 -8 5 -9 10 -1 15 -41 55 -56 55 -7 0 -13 7 -13
16 0 8 -19 34 -42 57 -23 23 -38 36 -33 28 5 -10 4 -12 -4 -7 -6 4 -9 11 -6
16 3 4 -11 22 -30 39 -19 17 -35 35 -35 41 0 5 -6 10 -14 10 -7 0 -16 8 -18
18 -3 9 -16 22 -29 29 -28 14 -205 54 -339 77 -201 35 -309 56 -346 68 -29 10
-61 40 -137 128 -55 63 -121 137 -148 164 -29 28 -49 57 -49 70 1 11 45 111
99 221 l98 200 -55 62 -54 63 -671 0 -670 0 19 -22 c37 -43 89 -104 129 -153
59 -72 231 -273 278 -324 34 -37 43 -42 58 -32 24 15 29 14 29 -4 0 -15 17
-20 155 -49 190 -40 273 -59 322 -72 56 -15 74 -31 201 -180 33 -39 91 -103
129 -141 l68 -69 115 -23 c145 -29 362 -81 376 -89 6 -4 49 -49 95 -101 46
-52 93 -104 104 -116 98 -102 225 -248 225 -259 0 -15 -24 -3 -47 24 -13 17
-28 28 -33 25 -11 -7 -33 22 -25 34 3 6 0 9 -7 6 -18 -7 -62 40 -53 55 4 6 1
9 -7 8 -7 -2 -12 4 -10 12 2 8 0 12 -4 8 -9 -10 -35 12 -28 23 3 5 0 8 -7 7
-7 -2 -13 2 -14 9 0 7 -7 18 -15 25 -12 11 -12 10 0 -7 14 -19 14 -19 -3 -6
-9 7 -16 21 -15 30 2 8 -4 16 -12 16 -8 0 -19 10 -26 23 -6 12 -15 26 -19 30
-5 4 -5 0 0 -8 4 -8 -8 3 -26 25 -19 22 -33 43 -32 47 2 4 -3 7 -10 5 -6 -1
-11 4 -9 11 1 8 -2 11 -6 8 -5 -3 -17 3 -27 14 -19 21 -75 41 -110 39 -11 -1
-1 -5 22 -11 37 -8 59 -28 210 -195 92 -102 185 -204 205 -227 21 -22 38 -46
38 -52 0 -16 -52 -8 -66 10 -15 22 -140 161 -194 218 -25 25 -59 64 -77 86
-63 76 -113 122 -140 127 -16 3 -41 10 -58 15 -16 5 -93 20 -170 35 -225 41
-231 44 -282 106 -25 30 -68 77 -96 105 -60 59 -118 126 -150 172 -26 37 -68
55 -187 78 -47 9 -109 22 -139 30 -29 7 -57 11 -62 8 -4 -2 -16 0 -26 5 -16 9
-140 39 -295 72 -42 9 -65 20 -86 43 -15 17 -29 34 -30 39 -1 4 -12 18 -24 31
-37 37 -123 138 -126 147 -5 13 -40 11 -44 -2 -2 -6 -21 4 -41 24 -41 38 -41
62 0 78 33 12 67 11 97 -2 31 -14 39 -34 24 -58 -10 -16 0 -32 68 -112 126
-151 120 -145 208 -163 43 -9 82 -16 87 -16 17 0 -16 58 -62 112 -64 73 -185
215 -234 273 -22 27 -61 73 -87 103 -27 30 -48 59 -48 64 0 4 -15 8 -34 8 -19
0 -38 5 -41 10 -4 7 -667 10 -1956 10 l-1949 0 0 -1950z m7015 1930 c3 -5 -1
-10 -9 -10 -9 0 -16 5 -16 10 0 6 4 10 9 10 6 0 13 -4 16 -10z m-707 -51 c28
-9 49 -35 38 -46 -2 -3 -16 3 -31 13 -30 19 -79 21 -101 3 -23 -19 -28 -3 -5
20 23 23 53 26 99 10z m-1765 -23 c18 -14 23 -46 7 -46 -26 0 2 -36 175 -225
45 -49 98 -107 116 -127 32 -36 40 -39 144 -58 61 -11 120 -26 132 -32 13 -6
95 -94 183 -195 121 -138 166 -183 183 -182 17 0 18 2 6 7 -9 4 -35 30 -59 57
-23 28 -63 74 -88 103 -26 30 -51 61 -56 70 -5 10 -23 31 -40 49 -17 17 -46
48 -63 68 -38 41 -59 51 -136 60 -31 4 -57 10 -57 14 0 3 -15 22 -33 41 -17
20 -44 50 -58 67 -17 20 -38 33 -60 36 -43 5 -79 27 -79 46 0 49 94 70 141 32
21 -17 22 -23 12 -40 -11 -17 -9 -25 15 -53 74 -89 97 -105 153 -113 76 -10
96 -23 180 -117 41 -45 81 -90 89 -99 8 -9 38 -43 65 -75 95 -111 97 -113 160
-129 33 -8 96 -20 140 -25 44 -5 121 -18 170 -29 235 -51 323 -71 337 -76 14
-5 87 -83 248 -259 30 -34 83 -91 118 -127 34 -36 62 -68 62 -72 0 -13 -62 -3
-73 13 -7 9 -64 72 -127 140 -63 67 -126 134 -140 149 -99 108 -122 130 -138
135 -21 7 -309 67 -482 101 -69 14 -138 24 -155 24 -32 -1 81 -28 350 -84 306
-64 279 -53 370 -147 92 -96 260 -278 300 -325 30 -36 12 -48 -20 -13 -10 11
-22 17 -27 14 -4 -3 -7 0 -6 7 2 7 -2 13 -9 14 -6 0 -15 4 -20 9 -5 5 -2 6 7
1 12 -7 13 -6 2 6 -7 8 -18 14 -25 14 -7 1 -11 6 -9 13 1 7 -4 11 -10 10 -7
-2 -12 3 -10 10 1 6 -4 11 -10 10 -7 -2 -12 3 -10 10 1 6 -5 12 -13 12 -8 0
-15 5 -15 11 0 5 6 7 13 3 6 -4 1 5 -12 19 -13 15 -27 24 -31 22 -7 -5 -63 49
-61 59 3 20 -2 28 -31 46 -18 11 -33 25 -33 32 0 7 -5 13 -11 13 -6 0 -24 15
-40 32 -27 29 -42 35 -149 58 -548 115 -565 119 -595 136 -32 19 -50 35 -50
47 0 6 -12 20 -27 32 -16 12 -21 18 -13 14 15 -7 -13 26 -86 103 -23 24 -40
43 -37 43 2 0 -13 17 -33 38 -20 20 -43 47 -51 59 -15 22 -30 28 -138 51 -158
34 -152 32 -187 77 -27 36 -37 43 -57 38 -17 -4 -22 -2 -17 6 4 6 13 8 19 4 7
-4 5 2 -3 13 -31 41 -194 230 -206 240 -8 6 -14 16 -14 23 0 6 -16 11 -37 11
-41 1 -83 28 -83 54 0 32 98 48 133 22z m-162 -52 c23 -21 24 -41 2 -46 -12
-2 -1 -21 48 -78 35 -41 75 -88 89 -104 68 -80 125 -142 139 -152 9 -6 57 -18
106 -28 117 -23 220 -45 272 -58 41 -10 71 -38 193 -182 112 -132 183 -202
214 -209 12 -3 77 -17 146 -31 69 -15 197 -43 285 -63 88 -20 179 -40 203 -44
51 -10 76 -29 159 -124 35 -38 110 -121 167 -184 58 -63 103 -117 101 -121 -3
-4 -15 -5 -29 -3 -21 4 -63 46 -246 246 -148 161 -125 146 -251 173 -63 14
-159 34 -214 45 -55 11 -127 26 -160 34 -33 8 -94 21 -137 30 -72 15 -80 20
-140 78 -36 34 -89 91 -119 127 -30 36 -58 68 -64 72 -6 5 -6 8 0 8 5 0 -1 7
-13 16 -12 8 -22 22 -22 31 0 9 -3 13 -6 10 -4 -4 -19 7 -33 23 -22 25 -43 33
-141 54 -226 50 -305 70 -315 80 -5 6 -28 34 -50 61 -22 28 -44 55 -50 61 -5
7 -46 55 -89 108 -64 76 -85 96 -106 96 -46 0 -81 22 -78 50 6 48 95 64 139
24z m1596 -14 c16 0 43 -29 43 -46 0 -8 -4 -12 -10 -9 -5 3 -10 2 -10 -4 0
-10 5 -16 265 -286 l183 -190 194 -39 c106 -21 205 -45 220 -52 40 -20 511
-491 504 -502 -3 -6 -16 -8 -29 -5 -28 7 -60 40 -52 53 4 6 3 10 -2 9 -20 -3
-34 2 -28 11 3 6 0 10 -7 10 -7 0 -24 15 -37 33 -13 17 -41 46 -62 62 -21 17
-36 36 -34 43 3 7 1 11 -4 7 -5 -3 -24 12 -43 33 -18 21 -52 53 -75 72 -23 18
-40 37 -36 43 4 6 1 7 -6 3 -8 -5 -14 0 -18 13 -3 11 -9 18 -14 15 -5 -3 -9 2
-9 10 0 9 -5 16 -10 16 -6 0 -21 11 -34 25 -24 26 -41 31 -286 81 -69 14 -135
28 -147 31 -11 3 -36 23 -55 45 -18 23 -94 104 -169 182 -182 189 -229 239
-229 249 0 5 -8 7 -17 6 -40 -4 -64 2 -70 16 -8 23 2 28 25 14 11 -7 30 -9 48
-5 28 7 28 8 10 22 -26 19 -56 18 -85 -2 -22 -16 -23 -15 -19 2 4 23 46 46 73
39 11 -2 25 -5 32 -5z m1325 -145 c0 -5 -5 -11 -11 -13 -6 -2 -11 4 -11 13 0
9 5 15 11 13 6 -2 11 -8 11 -13z m-1355 -31 c17 -24 17 -38 -2 -30 -42 16 -16
-15 205 -247 35 -37 67 -72 70 -77 3 -5 39 -17 80 -25 299 -64 495 -105 506
-105 3 0 40 -33 83 -72 42 -40 88 -82 101 -94 40 -33 310 -318 310 -326 0 -18
-20 -4 -83 56 -36 35 -69 61 -72 57 -4 -3 -5 -1 -3 5 4 17 -286 308 -333 334
-17 10 -114 33 -249 61 -52 10 -124 25 -160 33 -36 8 -91 19 -123 26 -53 11
-63 17 -125 83 -37 39 -103 109 -147 155 -44 46 -81 87 -83 93 -2 5 -18 9 -36
9 -20 0 -44 9 -59 23 -32 27 -32 30 -10 52 23 23 110 16 130 -11z m-2067 -24
c0 -5 -4 -10 -9 -10 -6 0 -13 5 -16 10 -3 6 1 10 9 10 9 0 16 -4 16 -10z m470
-5 c0 -8 -4 -15 -10 -15 -5 0 -10 7 -10 15 0 8 5 15 10 15 6 0 10 -7 10 -15z
m-660 -45 c0 -5 -4 -10 -10 -10 -5 0 -10 5 -10 10 0 6 5 10 10 10 6 0 10 -4
10 -10z m715 -9 c7 -12 -12 -24 -25 -16 -11 7 -4 25 10 25 5 0 11 -4 15 -9z
m-815 -21 c0 -5 -4 -10 -10 -10 -5 0 -10 5 -10 10 0 6 5 10 10 10 6 0 10 -4
10 -10z m2950 -21 c0 -5 -7 -9 -15 -9 -15 0 -20 12 -9 23 8 8 24 -1 24 -14z
m-3040 1 c0 -5 -5 -10 -11 -10 -5 0 -7 5 -4 10 3 6 8 10 11 10 2 0 4 -4 4 -10z
m2355 -14 c24 -10 35 -22 35 -35 0 -15 -4 -19 -17 -14 -15 6 -15 4 -2 -14 8
-11 46 -54 84 -95 63 -66 76 -76 125 -87 70 -16 252 -55 400 -86 264 -55 289
-62 324 -89 20 -15 40 -36 46 -46 6 -11 17 -20 24 -20 8 0 26 -15 41 -32 15
-18 92 -99 171 -179 79 -80 144 -151 144 -157 0 -15 -17 -16 -25 -2 -9 15 -27
12 -19 -2 4 -8 3 -10 -2 -5 -5 5 -9 12 -9 16 0 11 -24 37 -127 140 -54 54
-100 95 -103 93 -3 -3 -5 0 -5 7 0 16 -110 121 -127 121 -7 0 -12 3 -10 8 1 4
0 7 -3 8 -3 0 -17 11 -31 25 -19 17 -53 30 -110 42 -46 10 -122 26 -169 37
-47 10 -175 38 -285 61 -142 29 -206 47 -222 61 -23 21 -52 18 -73 -7 -14 -17
-40 -20 -40 -5 0 6 18 17 40 26 22 9 40 18 40 19 0 2 -12 17 -27 33 -16 16
-40 44 -55 62 -17 21 -37 34 -56 35 -34 3 -82 32 -82 51 0 18 40 44 68 44 12
0 38 -7 57 -14z m736 -41 c-1 -15 -24 -12 -29 3 -3 9 2 13 12 10 10 -1 17 -7
17 -13z m-3381 -35 c0 -5 -4 -10 -9 -10 -6 0 -13 5 -16 10 -3 6 1 10 9 10 9 0
16 -4 16 -10z m-100 -26 c0 -8 -4 -12 -10 -9 -5 3 -10 10 -10 16 0 5 5 9 10 9
6 0 10 -7 10 -16z m2708 -19 c-27 -25 -58 -33 -58 -16 0 11 48 38 70 40 9 1 5
-8 -12 -24z m-2798 -5 c0 -5 -7 -10 -15 -10 -8 0 -15 5 -15 10 0 6 7 10 15 10
8 0 15 -4 15 -10z m-100 -30 c0 -5 -7 -10 -15 -10 -8 0 -15 5 -15 10 0 6 7 10
15 10 8 0 15 -4 15 -10z m978 -31 c31 -10 47 -33 36 -50 -3 -5 -10 -7 -15 -4
-27 17 -1 -29 56 -102 37 -47 65 -92 65 -105 0 -19 -2 -20 -10 -8 -8 13 -10
13 -10 -1 0 -9 -9 -24 -20 -34 -11 -10 -20 -23 -20 -28 0 -6 3 -8 6 -4 3 3 52
-51 107 -121 56 -70 104 -129 107 -132 3 -3 18 -23 35 -45 48 -65 61 -76 102
-86 37 -9 178 -40 361 -78 89 -19 95 -22 134 -65 22 -25 44 -46 49 -46 14 0 2
19 -56 89 -42 52 -55 61 -82 61 -32 0 -73 28 -73 50 0 25 50 60 84 60 70 0
109 -36 86 -80 -10 -18 -4 -29 42 -83 29 -34 56 -64 59 -67 3 -3 21 -25 40
-50 19 -25 44 -56 56 -70 11 -14 48 -57 80 -95 l60 -71 94 -18 c87 -17 159
-47 159 -66 0 -15 -49 -17 -64 -2 -22 23 -83 41 -159 48 -65 7 -69 9 -107 53
-77 90 -184 216 -187 220 -2 2 -6 2 -9 -2 -5 -5 170 -233 201 -262 51 -47 126
-163 81 -126 -11 9 -15 9 -18 0 -5 -14 -46 29 -148 156 -40 50 -89 108 -109
131 -20 22 -49 58 -66 80 -16 21 -48 57 -70 79 -43 43 -40 42 -255 80 -41 7
-115 23 -165 34 -83 19 -93 24 -128 63 -20 24 -35 49 -32 55 2 7 -1 12 -8 10
-7 -1 -11 7 -9 18 2 14 0 16 -6 7 -6 -9 -15 -3 -32 20 -18 25 -19 30 -6 25 11
-4 15 -3 11 4 -4 6 -13 8 -20 5 -15 -5 -49 39 -41 53 3 5 -4 17 -17 27 l-22
19 20 -25 19 -25 -23 21 c-12 11 -23 28 -25 37 -3 24 -45 79 -55 72 -5 -2 -15
2 -22 11 -11 13 -9 23 12 62 13 26 27 49 32 50 8 4 -25 53 -65 97 -16 17 -31
38 -34 47 -3 12 -18 18 -47 20 -36 3 -42 6 -45 28 -3 20 -1 23 9 13 18 -18 66
-16 73 2 3 10 -3 17 -20 21 -31 8 -74 -10 -74 -31 0 -18 -17 -20 -23 -2 -7 18
11 47 36 57 30 12 49 12 85 -1z m-181 -49 c41 -16 54 -37 41 -66 -10 -20 -4
-32 46 -98 32 -41 75 -92 96 -115 21 -22 51 -57 66 -78 16 -21 65 -83 109
-138 44 -55 99 -125 123 -156 47 -63 22 -53 272 -104 169 -35 272 -62 286 -77
12 -13 174 -208 197 -238 26 -33 143 -176 159 -194 25 -27 22 -42 -7 -41 -20
0 -47 27 -131 130 -58 72 -120 147 -137 167 -31 37 -61 73 -111 134 -22 27
-36 33 -143 53 -65 13 -140 29 -168 36 -27 8 -85 21 -128 30 -43 10 -83 23
-90 30 -25 26 -248 306 -319 401 -26 34 -53 66 -60 71 -7 4 -39 43 -72 85 -32
43 -62 75 -67 72 -5 -3 -25 0 -43 6 -55 18 -53 67 4 89 33 13 43 13 77 1z
m939 -1 c10 -17 -13 -36 -27 -22 -12 12 -4 33 11 33 5 0 12 -5 16 -11z m-1798
-160 c-2 -6 -8 -10 -13 -10 -5 0 -11 4 -13 10 -2 6 4 11 13 11 9 0 15 -5 13
-11z m1955 -34 c1 -5 -6 -11 -15 -13 -11 -2 -18 3 -18 13 0 17 30 18 33 0z
m1657 -5 c0 -5 -12 -10 -26 -10 -14 0 -23 4 -19 10 3 6 15 10 26 10 10 0 19
-4 19 -10z m-3560 -19 c0 -14 -18 -23 -30 -16 -6 4 -8 11 -5 16 8 12 35 12 35
0z m3805 0 c6 -10 -54 -31 -87 -31 -24 0 -23 -3 10 -37 101 -106 184 -195 221
-238 24 -27 -9 4 -74 70 -190 194 -199 204 -184 209 8 2 32 11 54 19 50 19 53
19 60 8z m-4235 -46 c0 -18 -20 -20 -21 -2 0 10 -2 10 -6 0 -2 -7 -14 -13 -26
-13 -22 1 -22 1 -3 15 26 19 56 19 56 0z m475 -4 c7 -12 -12 -24 -25 -16 -11
7 -4 25 10 25 5 0 11 -4 15 -9z m3555 -5 c0 -3 -22 -12 -50 -21 -27 -9 -50
-20 -50 -23 0 -4 30 -38 66 -77 141 -149 227 -245 222 -250 -4 -4 -55 49 -272
282 -27 29 -47 56 -44 58 14 15 128 42 128 31z m-2708 -83 c12 -12 16 -26 12
-37 -5 -14 -9 -15 -15 -4 -7 10 -9 10 -9 -3 0 -8 11 -30 25 -49 28 -38 33 -65
10 -56 -15 5 -16 1 -19 -49 -1 -11 -8 -20 -16 -20 -8 0 -16 -9 -18 -20 -2 -14
0 -16 6 -7 6 8 39 -27 113 -120 57 -72 107 -135 110 -140 3 -5 38 -15 78 -22
60 -12 80 -21 110 -49 l36 -35 75 23 75 23 25 -28 c42 -47 63 -73 109 -135 24
-33 55 -72 69 -87 13 -14 21 -31 18 -37 -4 -6 -1 -9 7 -5 8 3 19 -5 25 -18 7
-13 32 -50 57 -83 82 -108 80 -106 64 -115 -7 -5 -36 -14 -63 -21 -47 -11 -50
-11 -68 12 -11 13 -27 33 -36 44 -9 11 -22 28 -28 39 -7 11 -14 15 -18 8 -3
-5 12 -33 34 -61 45 -57 48 -65 20 -58 -10 3 -21 0 -22 -5 -2 -6 -42 39 -88
98 -47 60 -87 111 -90 114 -10 9 -125 154 -152 192 -28 37 -32 43 -83 105 -18
22 -38 34 -63 38 -97 16 -124 29 -161 78 -20 26 -51 66 -69 88 -17 23 -29 46
-25 51 3 6 1 8 -4 5 -12 -7 -69 61 -59 70 3 3 8 -2 12 -11 3 -9 11 -16 17 -16
5 0 2 9 -7 19 -10 11 -24 17 -32 14 -21 -8 -18 46 6 85 11 18 20 39 20 48 0
10 5 12 13 7 6 -4 1 6 -13 23 -20 24 -32 30 -57 28 -17 -1 -39 3 -48 10 -15
11 -14 14 6 40 15 19 18 27 8 24 -8 -2 -18 -14 -24 -26 -14 -31 -27 -27 -23 5
2 17 13 33 28 41 33 17 98 9 122 -15z m212 -8 c9 -14 15 -25 13 -25 -2 0 -13
11 -25 25 -12 14 -18 25 -13 25 5 0 16 -11 25 -25z m-1450 -18 c15 -24 -20
-50 -46 -33 -23 14 -23 43 0 49 24 6 34 3 46 -16z m486 -17 c0 -5 -7 -10 -15
-10 -8 0 -15 5 -15 10 0 6 7 10 15 10 8 0 15 -4 15 -10z m488 -26 c12 -8 22
-24 22 -36 0 -17 -2 -18 -15 -8 -58 48 70 -151 145 -226 11 -11 35 -41 53 -66
112 -158 107 -154 262 -184 108 -20 136 -33 166 -76 13 -18 28 -37 35 -43 6
-5 22 -26 34 -45 13 -19 27 -37 30 -40 3 -3 30 -36 60 -75 30 -38 57 -72 60
-75 6 -5 114 -145 135 -175 14 -20 -2 -30 -22 -14 -11 9 -14 10 -9 2 4 -7 3
-13 -3 -13 -6 0 -29 26 -52 58 -24 31 -45 59 -48 62 -4 3 -19 23 -36 45 -16
22 -34 45 -40 51 -5 7 -28 36 -50 65 -22 29 -55 68 -72 86 -18 18 -33 36 -33
41 0 5 -16 27 -35 49 -29 34 -44 43 -92 52 -32 7 -76 16 -98 20 -109 22 -125
30 -161 84 -52 78 -92 129 -114 144 -11 8 -20 22 -20 31 1 14 4 13 20 -7 39
-46 19 -10 -26 49 -26 33 -51 57 -57 53 -5 -3 -13 1 -18 8 -14 23 -10 32 9 18
15 -13 16 -12 3 3 -7 10 -17 16 -21 13 -5 -3 -19 9 -31 27 l-23 33 30 -25 c20
-18 24 -19 11 -4 -9 11 -17 25 -17 30 0 5 -20 8 -46 6 -33 -3 -50 1 -65 13
-24 23 -24 33 3 62 26 28 91 32 126 7z m243 -41 c13 -16 12 -17 -3 -4 -10 7
-18 15 -18 17 0 8 8 3 21 -13z m-3391 -13 c0 -5 -5 -10 -11 -10 -5 0 -7 5 -4
10 3 6 8 10 11 10 2 0 4 -4 4 -10z m4690 -15 c0 -8 -7 -15 -15 -15 -8 0 -15 7
-15 15 0 8 7 15 15 15 8 0 15 -7 15 -15z m-1940 -36 c0 -5 -7 -9 -15 -9 -15 0
-20 12 -9 23 8 8 24 -1 24 -14z m2234 0 c30 -14 38 -32 27 -61 -7 -19 -1 -32
33 -73 68 -84 80 -92 153 -105 135 -25 159 -40 254 -153 48 -56 89 -106 90
-111 2 -5 -7 -10 -21 -11 -19 -2 -35 9 -68 49 -23 28 -66 77 -96 109 -50 55
-59 60 -120 73 -37 8 -84 16 -104 18 -38 5 -105 64 -158 138 -22 32 -30 36
-54 31 -22 -4 -35 1 -54 20 -27 27 -26 51 2 75 20 15 83 16 116 1z m-2272 -26
c10 -9 18 -24 18 -35 0 -20 -16 -24 -23 -5 -3 6 -6 3 -6 -8 -1 -11 49 -88 109
-170 165 -224 153 -212 239 -230 41 -9 80 -20 87 -26 7 -6 32 -38 56 -71 24
-33 62 -85 86 -115 46 -58 47 -69 11 -129 -11 -17 -19 -37 -19 -43 0 -6 22
-40 48 -74 82 -107 175 -237 171 -241 -2 -2 -13 -6 -25 -10 -16 -5 -27 3 -54
41 -19 27 -71 98 -117 160 -46 62 -83 116 -83 120 0 4 12 31 27 59 l27 52 -59
77 c-33 43 -66 88 -73 101 -20 36 -63 61 -117 69 -28 4 -59 11 -71 15 -11 5
-58 61 -104 127 -47 65 -89 123 -95 129 -5 6 -28 36 -50 67 -33 46 -45 57 -69
57 -30 0 -66 24 -66 45 0 6 9 21 20 33 26 28 104 31 132 5z m2034 6 c10 -17
-13 -36 -27 -22 -12 12 -4 33 11 33 5 0 12 -5 16 -11z m1936 -39 c64 -68 63
-67 25 -84 -75 -31 -75 -31 -128 23 -27 27 -49 56 -49 63 0 10 64 40 100 47 3
1 27 -22 52 -49z m-3884 -2 c-6 -18 -28 -21 -28 -4 0 9 7 16 16 16 9 0 14 -5
12 -12z m2005 -33 c1 -5 -6 -11 -15 -13 -11 -2 -18 3 -18 13 0 17 30 18 33 0z
m1676 -37 c28 -29 50 -57 48 -62 -2 -5 -27 -16 -57 -25 l-54 -15 -48 53 c-26
29 -48 56 -48 60 0 7 80 38 102 40 3 1 29 -22 57 -51z m-3238 -23 c5 -11 -4
-4 -21 15 -16 19 -30 39 -30 45 0 11 35 -30 51 -60z m2740 28 c13 -16 12 -17
-3 -4 -10 7 -18 15 -18 17 0 8 8 3 21 -13z m-1311 -38 c32 -17 36 -26 20 -55
-8 -14 -4 -25 15 -47 13 -15 61 -73 106 -128 45 -55 92 -106 105 -113 13 -7
64 -21 115 -31 70 -15 97 -25 120 -47 16 -15 29 -31 29 -35 0 -17 -47 -4 -75
22 -22 20 -51 31 -109 43 -43 9 -87 16 -99 16 -11 0 -29 7 -39 17 -20 18 -25
38 -5 27 8 -5 8 -2 -2 9 -15 18 -26 23 -16 7 3 -5 2 -10 -2 -10 -5 0 -28 26
-53 58 -25 31 -66 81 -92 110 -50 55 -56 67 -35 75 6 2 -9 2 -36 -1 -37 -4
-52 -1 -67 13 -61 55 38 112 120 70z m-1522 -21 c23 -16 29 -53 12 -70 -10
-10 -2 -23 213 -308 64 -86 117 -162 117 -169 0 -6 -20 -50 -45 -96 l-44 -85
37 -50 c20 -28 58 -80 84 -115 49 -65 59 -87 34 -78 -7 3 -18 1 -23 -4 -7 -7
-16 -1 -27 16 -10 15 -23 34 -31 43 -7 9 -39 51 -70 92 -66 88 -67 102 -11
197 42 71 43 80 17 113 -19 24 -44 57 -136 180 -23 30 -74 98 -113 152 -56 76
-76 95 -91 91 -24 -6 -57 11 -71 37 -9 16 -6 25 14 45 30 30 98 34 134 9z
m1762 -44 c29 -16 43 -46 30 -69 -8 -17 -1 -31 47 -88 32 -37 62 -71 67 -75 5
-3 50 -14 100 -23 102 -20 138 -35 160 -67 22 -31 20 -35 -13 -36 -20 0 -34 7
-49 27 -23 31 -74 49 -167 58 l-64 6 -73 80 c-40 44 -74 84 -76 88 -2 5 -15 6
-28 3 -18 -5 -32 0 -50 17 -29 27 -30 43 -4 69 22 22 87 27 120 10z m-1960
-25 c0 -8 -9 -15 -20 -15 -11 0 -20 7 -20 15 0 8 9 15 20 15 11 0 20 -7 20
-15z m50 -66 c0 -12 -29 -24 -37 -16 -3 4 -3 13 0 21 6 16 37 11 37 -5z m1245
-44 c17 -24 56 -76 89 -115 41 -51 55 -74 46 -80 -9 -5 -9 -9 -1 -14 6 -4 11
-2 11 3 0 21 15 10 44 -32 18 -25 22 -36 11 -27 -17 14 -18 13 -12 -2 4 -13 1
-16 -14 -13 -10 2 -19 0 -19 -6 0 -5 5 -9 11 -9 6 0 9 -7 5 -15 -3 -8 -1 -15
5 -15 6 0 7 -5 3 -11 -4 -7 1 -9 15 -5 11 3 30 8 40 11 14 4 27 -4 48 -30 15
-20 36 -46 46 -57 9 -12 17 -26 17 -33 0 -9 -89 -45 -113 -45 -3 0 -27 27 -53
60 -25 33 -50 57 -55 55 -4 -3 -44 40 -89 96 -44 55 -85 106 -91 112 -102 124
-129 160 -124 166 7 6 123 48 140 49 6 1 24 -19 40 -43z m-3755 15 c0 -5 -4
-10 -9 -10 -6 0 -13 5 -16 10 -3 6 1 10 9 10 9 0 16 -4 16 -10z m4782 0 c41
-12 64 -41 53 -68 -6 -15 -8 -15 -15 3 -7 15 -9 16 -9 4 -1 -17 23 -52 71
-104 15 -16 28 -33 28 -37 0 -13 -17 -9 -30 7 -7 8 -18 15 -24 14 -7 0 -6 -2
2 -6 6 -2 12 -10 12 -16 0 -6 -13 2 -30 18 -33 32 -42 59 -10 30 11 -10 20
-16 20 -13 0 2 -12 15 -27 29 -14 13 -22 17 -18 9 8 -13 7 -13 -9 0 -11 8 -14
16 -7 18 27 9 7 18 -36 16 -54 -3 -83 15 -83 51 0 30 15 42 70 54 3 0 22 -4
42 -9z m586 -45 c-3 -3 -13 7 -23 22 l-17 28 23 -22 c12 -12 20 -25 17 -28z
m-5068 -25 c0 -5 -7 -10 -15 -10 -8 0 -15 5 -15 10 0 6 7 10 15 10 8 0 15 -4
15 -10z m-620 -20 c0 -5 -7 -10 -15 -10 -8 0 -15 5 -15 10 0 6 7 10 15 10 8 0
15 -4 15 -10z m660 -45 c0 -8 -7 -15 -15 -15 -16 0 -20 12 -8 23 11 12 23 8
23 -8z m2832 -78 c21 -29 49 -66 63 -82 59 -72 175 -226 175 -233 0 -5 20 -35
45 -66 48 -63 48 -61 45 -121 -2 -43 -23 -75 -49 -74 -9 0 -41 34 -71 76 -30
42 -78 99 -106 127 -28 28 -89 100 -135 160 -46 60 -101 131 -121 158 -21 27
-38 52 -38 58 0 10 104 47 135 48 13 1 33 -17 57 -51z m2321 46 c-28 -5 -29
-12 -5 -29 9 -7 12 -14 5 -14 -6 0 -15 5 -18 10 -3 6 -18 10 -33 10 l-27 1 25
14 c14 8 36 14 50 13 23 -1 24 -1 3 -5z m113 -42 c-8 -12 -96 -42 -96 -32 0 4
19 14 43 23 50 19 60 21 53 9z m-106 -36 c0 -8 -38 -21 -80 -29 -33 -6 -32 -5
10 13 46 20 70 25 70 16z m-2921 -52 c37 -21 46 -44 31 -73 -9 -17 -8 -26 7
-47 10 -14 25 -36 33 -49 8 -12 49 -68 90 -124 146 -198 190 -262 185 -270 -2
-3 -15 -6 -29 -5 -25 0 -27 3 -302 388 -47 65 -59 76 -78 71 -14 -3 -32 3 -49
17 -39 30 -34 68 13 91 45 22 61 22 99 1z m-3154 -23 c3 -5 -1 -10 -10 -10 -9
0 -13 5 -10 10 3 6 8 10 10 10 2 0 7 -4 10 -10z m4545 -10 c0 -5 -7 -10 -16
-10 -8 0 -12 5 -9 10 3 6 10 10 16 10 5 0 9 -4 9 -10z m-3500 -10 c0 -5 -9
-10 -21 -10 -11 0 -17 5 -14 10 3 6 13 10 21 10 8 0 14 -4 14 -10z m1500 -9
c23 -18 24 -22 12 -55 l-13 -36 102 -148 c57 -81 118 -168 136 -194 18 -26 33
-52 33 -56 0 -25 53 -52 145 -73 98 -22 144 -43 145 -65 0 -21 -42 -24 -66 -5
-13 10 -64 26 -114 36 -51 10 -101 26 -115 37 -14 11 -43 49 -65 86 -23 37
-49 78 -60 92 -10 14 -57 81 -105 150 -48 69 -88 127 -91 129 -2 2 -18 5 -35
7 -102 12 -83 114 20 114 30 0 55 -7 71 -19z m241 -71 c20 -11 27 -74 9 -85
-5 -3 17 -45 51 -93 156 -225 134 -203 209 -217 87 -16 162 -48 186 -80 27
-36 31 -50 9 -42 -8 4 -17 1 -21 -5 -5 -7 -17 0 -33 20 -23 26 -40 33 -130 52
-120 26 -102 10 -237 203 -82 116 -100 137 -123 137 -57 1 -90 62 -54 102 18
20 101 25 134 8z m3795 -51 c22 -23 49 -53 62 -66 19 -21 29 -24 58 -19 51 10
44 -17 -10 -38 -90 -34 -148 -31 -97 5 19 13 18 16 -19 59 -36 40 -42 44 -60
32 -26 -16 -40 -15 -40 2 0 19 39 66 54 66 8 0 31 -19 52 -41z m-5446 -10 c0
-5 -10 -9 -21 -9 -18 0 -19 2 -9 15 12 15 30 12 30 -6z m1925 11 c3 -5 1 -10
-4 -10 -6 0 -11 5 -11 10 0 6 2 10 4 10 3 0 8 -4 11 -10z m-27 -36 c24 -16 28
-44 11 -73 -10 -15 -3 -30 44 -94 56 -75 62 -80 127 -92 19 -4 64 -15 100 -26
53 -15 68 -25 83 -50 9 -17 17 -34 17 -38 0 -14 -52 -6 -63 10 -22 29 -62 47
-130 58 -37 7 -78 16 -91 21 -21 8 -83 81 -129 153 -12 19 -26 27 -47 27 -16
0 -41 11 -57 24 -24 21 -26 27 -18 52 18 50 95 63 153 28z m3367 -10 c68 -32
104 -106 72 -148 -19 -26 -104 -34 -143 -13 -84 44 -114 130 -56 161 35 20 86
20 127 0z m-4049 -48 c3 -8 12 -12 19 -10 17 7 40 -65 25 -80 -6 -6 -13 0 -18
15 -5 13 -17 24 -27 24 -18 0 -39 47 -27 59 10 10 22 6 28 -8z m3762 -44 c9
-9 35 -39 56 -65 39 -48 44 -50 95 -36 7 2 15 -1 17 -6 5 -13 -135 -60 -144
-49 -4 3 -2 8 3 11 39 14 38 21 -10 77 -44 50 -50 54 -65 41 -17 -16 -40 -20
-40 -8 0 12 43 53 57 53 7 0 21 -8 31 -18z m884 -127 c16 -14 26 -25 21 -25
-22 1 -83 73 -83 99 0 9 8 1 17 -17 8 -18 29 -44 45 -57z m-6797 65 c3 -6 -1
-13 -10 -16 -19 -8 -30 0 -20 15 8 14 22 14 30 1z m5824 -123 c24 4 32 2 27
-6 -4 -6 -13 -11 -19 -11 -7 0 -34 -11 -62 -25 -60 -29 -65 -30 -65 -9 0 9 9
18 20 21 27 7 25 18 -11 57 -16 19 -36 42 -44 52 -13 19 -14 19 -28 0 -10 -13
-20 -17 -33 -12 -17 7 -16 10 15 38 l35 31 65 -71 c62 -66 68 -70 100 -65z
m-5024 113 c3 -6 -1 -13 -10 -16 -19 -8 -30 0 -20 15 8 14 22 14 30 1z m-117
-42 c-6 -18 -28 -21 -28 -4 0 9 7 16 16 16 9 0 14 -5 12 -12z m5886 -86 c19
-17 36 -29 39 -26 2 3 7 -2 10 -11 10 -23 -4 -18 -44 18 -40 36 -59 67 -58 94
0 10 5 4 10 -13 5 -17 24 -44 43 -62z m-6524 57 c0 -5 -9 -9 -20 -9 -22 0 -27
16 -7 23 15 5 27 -1 27 -14z m6653 4 c22 -25 31 -68 18 -90 -10 -15 -10 -14
-5 9 6 27 -5 55 -32 82 -8 9 -11 16 -6 16 5 0 16 -8 25 -17z m-5060 -28 c1 -5
-6 -11 -15 -13 -11 -2 -18 3 -18 13 0 17 30 18 33 0z m4677 -13 c-28 -22 -22
-48 22 -98 35 -40 45 -42 50 -11 3 18 5 16 9 -9 5 -31 4 -31 -23 -22 -35 12
-88 72 -88 100 0 22 26 58 43 58 5 0 -1 -8 -13 -18z m108 1 c28 -16 82 -89 82
-110 0 -6 -6 -16 -14 -22 -12 -10 -13 -8 -9 8 8 30 -24 90 -55 104 -31 13 -58
37 -44 37 6 0 24 -8 40 -17z m-5960 -4 c-2 -6 -8 -10 -13 -10 -5 0 -11 4 -13
10 -2 6 4 11 13 11 9 0 15 -5 13 -11z m4592 -134 c34 -17 70 -65 70 -92 0 -24
-34 -57 -52 -50 -9 4 -7 6 4 6 10 1 22 11 29 22 9 18 6 28 -17 62 -41 57 -50
56 -63 -3 -15 -69 -14 -80 7 -81 11 0 12 -2 4 -6 -21 -8 -70 17 -97 49 -26 30
-33 82 -15 93 7 4 9 -2 5 -17 -6 -27 24 -81 54 -97 18 -10 20 -7 26 33 4 24 8
56 9 70 1 31 -1 30 36 11z m-3270 -76 c0 -5 -9 -9 -20 -9 -19 0 -26 11 -14 23
8 8 34 -3 34 -14z m3059 -21 c45 -46 56 -105 21 -116 -12 -4 -13 -2 -2 9 6 7
12 21 12 31 0 18 -56 88 -70 88 -4 0 -10 -23 -14 -51 -4 -28 -9 -49 -12 -46
-11 11 8 117 21 117 7 0 27 -15 44 -32z m841 -5 c12 -16 39 -47 61 -70 35 -37
43 -41 74 -36 22 4 35 2 35 -5 0 -24 -125 -70 -157 -58 -17 7 -16 9 5 24 l23
18 -37 47 c-37 48 -48 55 -59 37 -9 -14 -45 -12 -45 2 0 16 51 68 66 68 7 0
22 -12 34 -27z m-995 -2 c-4 -14 5 -32 31 -60 20 -23 40 -38 45 -35 5 3 9 0 9
-5 0 -6 8 -12 18 -12 15 -1 15 -2 -1 -6 -43 -11 -129 81 -113 122 8 22 18 18
11 -4z m-136 -112 c45 -60 57 -70 78 -66 31 6 16 -8 -17 -16 -21 -5 -28 -1
-38 21 -6 15 -29 48 -50 74 l-39 47 -23 -22 -23 -22 19 27 c10 15 24 28 30 28
6 0 34 -32 63 -71z m968 45 c48 -31 73 -70 73 -112 0 -44 -31 -62 -104 -62
-57 0 -61 2 -103 45 -60 63 -59 107 2 139 44 23 86 20 132 -10z m955 -163 c15
-5 13 -8 -14 -19 -22 -8 -28 -8 -20 0 8 8 -3 27 -41 74 -53 64 -73 76 -83 49
-4 -8 -11 -15 -17 -15 -6 0 0 12 14 26 l24 25 59 -66 c33 -37 68 -70 78 -74z
m-2125 93 c28 -17 63 -71 63 -95 0 -9 -7 -23 -16 -30 -15 -12 -16 -11 -10 7
11 35 -32 114 -63 114 -8 0 -27 -98 -24 -127 0 -7 -5 -13 -11 -13 -17 0 -39
19 -70 61 -32 43 -33 60 -5 85 22 19 22 19 9 -2 -7 -12 -10 -32 -7 -46 7 -28
55 -80 68 -73 6 5 21 89 20 120 0 6 -10 13 -23 17 -15 5 -12 6 11 3 19 -3 46
-12 58 -21z m-1777 -39 c14 -19 14 -19 -2 -6 -10 7 -18 18 -18 24 0 6 1 8 3 6
1 -2 9 -13 17 -24z m428 -25 c3 -21 2 -22 -12 -11 -19 16 -21 44 -3 39 6 -3
14 -15 15 -28z m3124 21 c2 -5 27 -37 57 -71 49 -56 57 -61 84 -56 17 4 29 4
26 2 -8 -8 -123 -46 -126 -42 -2 2 10 9 27 15 l32 11 -58 65 c-32 36 -61 65
-65 65 -4 0 -15 -10 -23 -22 -9 -12 -16 -19 -16 -15 0 5 8 19 18 32 17 25 38
32 44 16z m-5103 -28 c12 -23 -21 -53 -51 -46 -41 10 -51 24 -31 43 23 22 70
23 82 3z m-1286 -9 c-3 -8 -12 -13 -20 -10 -8 3 -20 6 -26 6 -19 0 16 20 35
20 12 0 15 -5 11 -16z m3007 2 c0 -2 -9 -6 -20 -9 -11 -3 -20 -1 -20 4 0 5 9
9 20 9 11 0 20 -2 20 -4z m298 -29 c7 -8 7 -18 1 -27 -8 -13 -10 -13 -19 0
-21 32 -5 55 18 27z m2935 -124 c10 -13 28 -23 40 -23 18 0 19 -2 7 -10 -24
-16 -34 -12 -58 23 -12 17 -38 50 -57 71 l-35 39 -25 -23 c-14 -13 -25 -19
-25 -12 0 6 12 20 26 31 l27 21 41 -47 c22 -26 49 -57 59 -70z m-1636 81 c-3
-3 -12 -4 -19 -1 -8 3 -5 6 6 6 11 1 17 -2 13 -5z m-1671 -31 c24 -16 43 -34
44 -40 0 -24 -28 -13 -64 23 -54 54 -48 59 20 17z m124 12 c-7 -8 -17 -15 -23
-15 -6 0 -2 7 9 15 25 19 30 19 14 0z m289 1 c9 -11 9 -16 0 -21 -10 -7 -28
10 -29 28 0 12 17 8 29 -7z m1691 -67 c54 -70 62 -74 105 -58 6 2 12 0 14 -6
4 -9 -52 -35 -121 -55 -22 -7 -28 -5 -28 6 0 8 6 14 13 14 6 0 18 4 26 9 11 7
10 13 -8 32 -13 13 -30 36 -39 51 -20 35 -41 42 -62 23 -20 -18 -30 -19 -30
-3 0 18 41 58 59 58 9 -1 41 -32 71 -71z m935 37 c39 -17 83 -59 96 -95 9 -23
0 -44 -26 -63 -21 -15 -24 -7 -5 12 16 16 18 24 9 48 -12 34 -53 77 -67 68 -5
-3 -12 -31 -15 -62 -5 -47 -3 -60 11 -70 14 -11 10 -11 -21 -2 -50 15 -107 78
-107 118 0 29 23 51 52 49 7 0 3 -4 -9 -9 -31 -12 -29 -45 3 -92 34 -48 50
-48 58 0 11 67 7 88 -16 100 -34 16 -3 14 37 -2z m-2638 -35 c-2 -31 -27 -32
-27 -1 0 15 5 21 27 29 1 1 1 -12 0 -28z m53 14 c14 -17 5 -35 -19 -35 -14 0
-17 6 -13 25 5 28 14 31 32 10z m3570 -24 c51 -41 75 -86 62 -116 -15 -33 -74
-51 -123 -36 -73 22 -138 108 -112 150 30 48 114 49 173 2z m-3869 11 c-7 -2
-18 1 -23 6 -8 8 -4 9 13 5 13 -4 18 -8 10 -11z m399 -38 c13 -34 13 -39 -5
-24 -9 8 -15 8 -15 2 0 -6 6 -12 13 -15 6 -2 9 -8 5 -12 -4 -4 -16 8 -27 26
-15 25 -17 35 -8 41 20 13 27 9 37 -18z m1307 -49 c30 -38 59 -69 66 -68 7 1
24 5 40 9 15 3 27 2 27 -3 0 -7 -143 -63 -162 -63 -19 0 -5 19 21 30 l30 12
-46 59 c-26 32 -49 59 -53 59 -4 0 -13 -7 -20 -15 -13 -15 -40 -21 -40 -8 0
15 55 63 69 61 8 -2 39 -34 68 -73z m1540 69 c-3 -3 -12 -4 -19 -1 -8 3 -5 6
6 6 11 1 17 -2 13 -5z m-2959 -39 c-3 -28 -10 -31 -28 -10 -14 16 -6 35 15 35
10 0 14 -9 13 -25z m45 -21 c-3 -45 -19 -66 -33 -44 -7 10 -5 18 5 26 16 12
21 29 6 20 -4 -3 -6 6 -3 20 7 39 27 22 25 -22z m2347 24 c37 -25 65 -61 75
-95 4 -16 -1 -30 -19 -48 -30 -30 -102 -35 -144 -9 -37 22 -82 82 -82 110 0
59 106 85 170 42z m460 2 c-8 -5 -19 -10 -25 -10 -5 0 -3 5 5 10 8 5 20 10 25
10 6 0 3 -5 -5 -10z m-2700 -10 c0 -5 -4 -10 -10 -10 -5 0 -10 -7 -10 -16 0
-8 4 -13 9 -9 6 3 8 -6 5 -21 -3 -14 -1 -23 4 -20 4 2 9 -5 9 -16 2 -20 1 -20
-12 -2 -8 11 -15 24 -15 31 0 6 -5 13 -11 15 -7 2 -7 12 2 31 12 27 29 37 29
17z m3163 -11 c80 -41 124 -124 82 -159 -28 -23 -91 -24 -137 -1 -92 44 -117
129 -48 163 45 23 52 22 103 -3z m-3226 -77 c-9 -22 -13 -42 -10 -46 4 -3 4
-6 0 -6 -3 0 -13 8 -22 17 -16 15 -15 18 7 34 12 10 17 19 11 19 -14 0 -18 32
-6 44 4 3 13 0 21 -8 13 -13 13 -20 -1 -54z m2034 -47 c64 -78 64 -77 118 -57
8 3 12 0 9 -8 -4 -12 -118 -60 -144 -60 -24 0 -15 19 12 26 31 8 28 15 -28 88
l-43 56 -21 -26 c-15 -18 -24 -22 -29 -14 -9 15 36 69 57 70 4 0 36 -34 69
-75z m939 59 c19 -4 50 -25 76 -51 37 -37 44 -50 44 -83 0 -34 -4 -42 -30 -55
-35 -18 -116 -19 -147 -2 -34 19 -83 87 -83 116 0 34 9 46 45 65 33 18 48 19
95 10z m-2920 -34 c0 -4 -7 -24 -15 -45 -14 -31 -18 -35 -31 -24 -14 11 -13
15 7 30 18 13 20 18 7 20 -12 3 -13 9 -7 28 8 19 12 21 24 11 8 -7 15 -16 15
-20z m-111 13 c0 -5 -4 -16 -8 -27 -7 -17 -9 -16 -24 8 -17 26 -17 26 8 26 14
0 25 -3 24 -7z m148 -76 c-2 -6 -13 -12 -26 -14 -12 -2 -20 0 -18 4 2 5 7 16
11 27 5 15 9 16 21 6 9 -7 14 -18 12 -23z m2639 -43 c73 -84 80 -89 119 -85
51 4 45 -22 -9 -43 -71 -27 -103 -34 -116 -26 -15 9 -5 30 15 30 19 0 9 29
-21 57 -13 13 -27 31 -33 40 -8 15 -12 16 -34 4 -24 -13 -47 -9 -47 7 0 11 58
72 68 72 5 0 31 -25 58 -56z m-2708 1 c1 -1 0 -10 -4 -19 -6 -16 -8 -16 -25 0
-26 23 -24 37 4 28 12 -3 23 -8 25 -9z m52 1 c0 -16 -18 -31 -27 -22 -8 8 5
36 17 36 5 0 10 -6 10 -14z m54 -2 c10 -27 7 -34 -20 -34 -18 0 -23 4 -17 13
4 6 8 15 9 20 3 15 4 17 13 17 5 0 12 -7 15 -16z m-67 -67 c-6 -18 -22 -18
-34 1 -10 17 -8 18 13 14 14 -2 23 -9 21 -15z m53 9 c0 -16 -18 -31 -27 -22
-8 8 5 36 17 36 5 0 10 -6 10 -14z m55 -11 c0 -11 -9 -19 -23 -22 -13 -1 -21
0 -19 4 2 5 7 16 10 26 9 23 32 17 32 -8z m3250 -39 c112 -125 104 -118 137
-107 17 6 33 9 36 6 3 -2 -1 -6 -9 -9 -8 -2 -40 -13 -72 -25 -32 -11 -55 -16
-52 -11 3 6 12 10 20 10 21 0 28 18 13 34 -7 7 -35 36 -62 65 l-48 52 -26 -23
-26 -23 23 33 c12 17 25 32 29 32 4 0 20 -15 37 -34z m-3265 -10 c0 -8 -4 -17
-9 -21 -12 -7 -24 12 -16 25 9 15 25 12 25 -4z m55 -45 c-7 -44 -15 -50 -35
-26 -10 12 -9 16 4 21 9 3 16 10 16 16 0 5 -4 6 -10 3 -13 -8 -13 1 1 27 17
32 32 7 24 -41z m-1521 32 c-3 -10 6 -30 21 -45 14 -15 25 -32 25 -38 0 -6 7
-23 16 -38 15 -25 15 -26 0 -7 -9 11 -23 28 -31 38 -8 9 -15 21 -15 26 0 5
-11 23 -25 39 -23 27 -24 31 -8 35 10 3 19 5 20 6 0 0 -1 -7 -3 -16z m4545
-37 c39 -21 91 -82 91 -108 0 -25 -27 -58 -48 -58 -9 0 -7 6 8 18 17 14 21 25
17 43 -8 31 -67 93 -78 82 -4 -4 -9 -35 -10 -68 -3 -55 -1 -61 22 -73 24 -13
24 -13 -6 -7 -97 21 -172 130 -117 171 23 18 86 17 121 0z m-3091 -8 c-6 -18
-25 -20 -31 -3 -5 10 0 15 14 15 12 0 19 -5 17 -12z m109 1 c17 -17 5 -43 -13
-28 -15 12 -19 39 -6 39 4 0 13 -5 19 -11z m-1893 -34 c3 -9 12 -12 23 -8 15
6 16 4 6 -8 -6 -8 -11 -18 -10 -24 1 -6 -27 -11 -63 -13 l-65 -3 30 19 c17 10
36 26 44 35 17 21 27 21 35 2z m3695 -22 c35 -27 71 -81 71 -109 0 -54 -95
-83 -161 -49 -37 20 -89 90 -89 122 0 57 117 81 179 36z m-4279 -3 c0 -5 -4
-10 -10 -10 -5 0 -10 5 -10 10 0 6 5 10 10 10 6 0 10 -4 10 -10z m2456 -77
c-18 -59 -21 -34 -4 39 8 33 13 45 16 31 2 -11 -4 -43 -12 -70z m68 71 c4 -9
4 -19 1 -22 -7 -8 -35 19 -29 29 8 14 21 11 28 -7z m2696 -16 c49 -25 90 -77
90 -114 0 -31 -36 -54 -84 -54 -102 0 -194 134 -118 174 38 21 61 20 112 -6z
m-2652 -52 c3 -12 -1 -17 -10 -14 -7 3 -15 13 -16 22 -3 12 1 17 10 14 7 -3
15 -13 16 -22z m-2804 5 c3 -5 0 -14 -8 -20 -10 -8 -16 -8 -25 3 -9 11 -9 15
1 19 20 8 26 8 32 -2z m4249 -2 c85 -45 115 -149 52 -177 -32 -15 -87 -15
-117 -1 -29 13 -88 97 -88 125 0 23 18 49 40 57 27 10 91 7 113 -4z m-4655
-41 c-3 -7 -11 -13 -18 -13 -7 0 -15 6 -17 13 -3 7 4 12 17 12 13 0 20 -5 18
-12z m5568 -20 c43 -47 107 -129 103 -131 -25 -16 -60 -29 -65 -25 -3 4 4 9
15 13 12 3 21 11 21 16 0 12 -101 139 -110 139 -4 0 -15 -9 -25 -20 -10 -11
-21 -18 -23 -15 -6 6 37 55 48 55 3 0 20 -15 36 -32z m-2821 1 c0 -8 4 -17 8
-20 5 -3 1 -9 -8 -13 -14 -5 -16 -2 -11 20 6 22 4 25 -9 20 -10 -3 -14 -2 -10
5 9 14 30 6 30 -12z m-2287 -27 c5 -17 -27 -27 -41 -13 -9 9 -8 14 3 21 18 11
32 8 38 -8z m29 -4 c-3 -8 -6 -5 -6 6 -1 11 2 17 5 13 3 -3 4 -12 1 -19z
m4887 -32 c40 -17 86 -80 86 -118 0 -40 -38 -62 -95 -56 -97 11 -174 129 -113
172 28 20 78 20 122 2z m-2594 -10 c0 -3 -4 -8 -10 -11 -5 -3 -10 -1 -10 4 0
6 5 11 10 11 6 0 10 -2 10 -4z m34 -12 c8 -20 -1 -34 -22 -34 -13 0 -13 2 4
15 11 8 14 15 7 15 -7 0 -13 5 -13 10 0 16 17 12 24 -6z m-3164 -14 c0 -14
-33 -21 -44 -10 -8 8 -7 13 3 19 15 10 41 4 41 -9z m3059 -51 c-19 -12 -25
-11 -39 6 -11 13 -10 18 6 29 16 12 20 11 33 -6 12 -17 12 -21 0 -29z m51 36
c0 -17 -35 -20 -46 -4 -4 8 0 9 15 4 12 -4 21 -2 21 4 0 6 2 11 5 11 3 0 5 -7
5 -15z m578 -18 c2 -10 -3 -17 -12 -17 -18 0 -29 16 -21 31 9 14 29 6 33 -14z
m2377 13 c-27 -12 -43 -12 -25 0 8 5 22 9 30 9 10 0 8 -3 -5 -9z m-2336 -63
c6 -8 8 -17 4 -20 -7 -8 -33 11 -33 24 0 13 16 11 29 -4z m-799 -22 c14 -17
10 -47 -8 -53 -11 -3 -11 -1 0 18 11 18 11 23 -6 36 -11 8 -15 14 -9 14 6 0
16 -7 23 -15z"/>
<path d="M4450 3789 l-25 -10 33 -15 c26 -10 39 -11 55 -3 20 11 20 12 2 25
-22 16 -31 16 -65 3z"/>
<path d="M4810 3565 c0 -10 10 -15 30 -15 20 0 30 5 30 15 0 10 -10 15 -30 15
-20 0 -30 -5 -30 -15z"/>
<path d="M4292 3743 c-18 -7 4 -33 29 -33 24 0 35 20 18 31 -15 10 -27 10 -47
2z"/>
<path d="M5770 3400 c0 -5 10 -14 21 -21 26 -13 80 8 57 23 -18 11 -78 10 -78
-2z"/>
<path d="M4830 2331 c0 -6 4 -13 10 -16 6 -3 7 1 4 9 -7 18 -14 21 -14 7z"/>
<path d="M5146 1947 c3 -10 9 -15 12 -12 3 3 0 11 -7 18 -10 9 -11 8 -5 -6z"/>
<path d="M3899 2402 c11 -16 28 -35 38 -43 9 -8 2 5 -17 29 -38 48 -52 57 -21
14z"/>
<path d="M3960 2331 c0 -6 4 -13 10 -16 6 -3 7 1 4 9 -7 18 -14 21 -14 7z"/>
<path d="M4588 1883 c7 -3 16 -2 19 1 4 3 -2 6 -13 5 -11 0 -14 -3 -6 -6z"/>
<path d="M3424 2735 c-10 -26 1 -35 13 -10 6 14 7 25 2 25 -5 0 -12 -7 -15
-15z"/>
<path d="M3805 2290 c10 -11 20 -20 22 -20 2 0 -2 9 -9 20 -7 11 -17 20 -22
20 -5 0 -1 -9 9 -20z"/>
<path d="M4310 1936 c0 -2 8 -10 18 -17 15 -13 16 -12 3 4 -13 16 -21 21 -21
13z"/>
<path d="M4350 1886 c0 -2 8 -10 18 -17 15 -13 16 -12 3 4 -13 16 -21 21 -21
13z"/>
<path d="M4440 1766 c0 -2 8 -10 18 -17 15 -13 16 -12 3 4 -13 16 -21 21 -21
13z"/>
<path d="M3002 2604 c5 -29 35 -41 54 -22 22 21 10 38 -27 38 -23 0 -30 -4
-27 -16z"/>
<path d="M2975 2599 c-4 -6 -5 -12 -2 -15 2 -3 7 2 10 11 7 17 1 20 -8 4z"/>
<path d="M3067 2553 c-3 -4 6 -22 20 -38 14 -17 22 -24 18 -17 -3 6 -12 24
-20 38 -7 14 -15 22 -18 17z"/>
<path d="M3170 2403 c1 -11 50 -70 50 -59 0 4 -11 21 -25 38 -14 16 -25 26
-25 21z"/>
<path d="M3526 2108 c10 -14 21 -24 23 -22 3 3 -6 15 -18 27 l-24 22 19 -27z"/>
<path d="M3670 1891 c0 -11 -4 -23 -10 -26 -5 -3 -10 -12 -10 -18 0 -7 9 2 20
18 22 34 25 45 10 45 -5 0 -10 -9 -10 -19z"/>
<path d="M3633 1815 c-3 -9 -3 -18 -1 -21 3 -3 8 4 11 16 6 23 -1 27 -10 5z"/>
<path d="M4988 2483 c7 -3 16 -2 19 1 4 3 -2 6 -13 5 -11 0 -14 -3 -6 -6z"/>
<path d="M4943 2465 c-9 -24 1 -27 15 -5 8 13 8 20 2 20 -6 0 -13 -7 -17 -15z"/>
<path d="M5056 2457 c3 -10 9 -15 12 -12 3 3 0 11 -7 18 -10 9 -11 8 -5 -6z"/>
<path d="M5085 2350 c10 -11 20 -20 23 -20 3 0 -3 9 -13 20 -10 11 -20 20 -23
20 -3 0 3 -9 13 -20z"/>
<path d="M5130 2296 c0 -2 8 -10 18 -17 15 -13 16 -12 3 4 -13 16 -21 21 -21
13z"/>
<path d="M4570 2181 c0 -6 4 -13 10 -16 6 -3 7 1 4 9 -7 18 -14 21 -14 7z"/>
<path d="M4600 2146 c0 -2 8 -10 18 -17 15 -13 16 -12 3 4 -13 16 -21 21 -21
13z"/>
<path d="M4740 1975 c0 -8 4 -15 10 -15 5 0 7 7 4 15 -4 8 -8 15 -10 15 -2 0
-4 -7 -4 -15z"/>
<path d="M4768 1943 c7 -3 16 -2 19 1 4 3 -2 6 -13 5 -11 0 -14 -3 -6 -6z"/>
<path d="M5580 2275 c-6 -8 -10 -20 -7 -27 4 -9 6 -8 6 3 1 9 11 21 24 27 16
8 17 11 6 11 -9 1 -22 -6 -29 -14z"/>
<path d="M5650 2280 c8 -5 20 -10 25 -10 6 0 3 5 -5 10 -8 5 -19 10 -25 10 -5
0 -3 -5 5 -10z"/>
<path d="M2870 1782 c6 -13 14 -21 18 -18 3 4 -2 14 -12 24 -18 16 -18 16 -6
-6z"/>
<path d="M3244 1776 c-3 -8 -3 -20 1 -26 10 -15 45 -12 52 5 7 19 5 20 -25 29
-15 5 -24 3 -28 -8z"/>
<path d="M6607 1763 c-12 -11 -8 -29 12 -52 16 -18 20 -19 25 -5 13 33 7 64
-12 64 -10 0 -22 -3 -25 -7z"/>
<path d="M6696 1708 c-10 -38 -7 -48 13 -48 27 0 33 14 20 44 -15 32 -25 33
-33 4z"/>
<path d="M5920 1178 c0 -15 5 -30 12 -34 6 -4 8 -3 4 4 -3 5 -1 12 4 14 7 2 5
11 -4 23 -15 19 -15 19 -16 -7z"/>
<path d="M6016 1115 c-9 -26 -7 -32 5 -12 6 10 9 21 6 23 -2 3 -7 -2 -11 -11z"/>
<path d="M7067 903 c-14 -14 -6 -47 19 -81 32 -41 44 -30 44 41 0 45 -1 47
-28 47 -16 0 -32 -3 -35 -7z"/>
<path d="M7160 825 l0 -56 32 3 c41 4 46 24 16 68 -37 53 -48 50 -48 -15z"/>
<path d="M5892 848 c-17 -17 -15 -36 9 -74 30 -49 49 -44 51 11 0 25 1 51 2
58 1 16 -46 21 -62 5z"/>
<path d="M5987 813 c-3 -10 -9 -37 -12 -60 -7 -42 -6 -43 23 -43 16 0 35 7 43
16 11 13 10 21 -6 50 -25 47 -42 60 -48 37z"/>
<path d="M6832 813 c-11 -20 -2 -46 27 -83 25 -32 33 -23 35 42 1 50 0 53 -26
56 -18 2 -30 -3 -36 -15z"/>
<path d="M6927 779 c-10 -37 -8 -87 4 -94 5 -4 21 -4 35 -1 33 9 32 47 -4 87
l-29 32 -6 -24z"/>
<path d="M6615 700 c4 -6 11 -8 16 -5 14 9 11 15 -7 15 -8 0 -12 -5 -9 -10z"/>
<path d="M6710 638 c0 -4 4 -8 9 -8 6 0 12 4 15 8 3 5 -1 9 -9 9 -8 0 -15 -4
-15 -9z"/>
<path d="M6832 458 c-18 -18 -15 -44 11 -83 44 -68 67 -57 67 31 l0 64 -33 0
c-18 0 -38 -5 -45 -12z"/>
<path d="M5636 397 c-14 -10 -17 -21 -12 -40 7 -28 51 -85 59 -77 3 3 7 32 9
65 3 54 1 60 -17 63 -11 1 -29 -3 -39 -11z"/>
<path d="M5728 374 c-3 -5 -7 -34 -9 -64 -4 -49 -2 -55 16 -58 33 -5 59 21 51
51 -8 32 -51 84 -58 71z"/>
<path d="M6598 379 c-30 -17 -22 -65 16 -107 19 -20 37 -34 41 -30 4 3 9 34
12 68 5 47 3 64 -8 71 -18 11 -40 11 -61 -2z"/>
<path d="M6680 313 c0 -27 -3 -58 -6 -70 -6 -21 -3 -23 34 -23 69 0 80 45 26
109 -38 46 -54 41 -54 -16z"/>
<path d="M5380 301 c-13 -24 0 -61 32 -91 l23 -21 6 28 c4 15 7 45 8 66 1 35
-1 37 -29 37 -19 0 -33 -7 -40 -19z"/>
<path d="M5476 268 c-3 -13 -6 -42 -6 -65 0 -38 3 -43 23 -43 32 0 60 31 50
56 -9 25 -45 74 -54 74 -4 0 -9 -10 -13 -22z"/>
<path d="M6102 198 c-25 -25 -10 -73 36 -116 13 -13 28 -20 32 -15 5 4 10 37
12 73 l3 65 -35 3 c-19 2 -41 -3 -48 -10z"/>
<path d="M6196 144 c-3 -26 -6 -60 -6 -76 0 -28 2 -29 36 -26 43 3 60 24 51
60 -7 25 -55 88 -68 88 -3 0 -9 -21 -13 -46z"/>
<path d="M3520 140 c0 -5 5 -10 11 -10 5 0 7 5 4 10 -3 6 -8 10 -11 10 -2 0
-4 -4 -4 -10z"/>
<path d="M7305 3480 c-3 -5 -2 -10 4 -10 5 0 13 5 16 10 3 6 2 10 -4 10 -5 0
-13 -4 -16 -10z"/>
<path d="M4980 3188 c8 -7 48 -51 89 -98 136 -157 255 -280 270 -280 11 0 12
3 5 8 -6 4 -21 24 -32 45 -12 23 -22 33 -25 25 -4 -8 -6 -7 -6 5 -1 9 -5 17
-11 17 -5 0 -9 4 -7 9 1 5 -2 11 -8 12 -13 5 -61 57 -136 149 -80 97 -89 105
-124 114 -25 5 -27 4 -15 -6z"/>
<path d="M5408 2793 c7 -3 16 -2 19 1 4 3 -2 6 -13 5 -11 0 -14 -3 -6 -6z"/>
<path d="M5648 2743 c7 -3 16 -2 19 1 4 3 -2 6 -13 5 -11 0 -14 -3 -6 -6z"/>
<path d="M6155 2370 c3 -5 8 -10 11 -10 2 0 4 5 4 10 0 6 -5 10 -11 10 -5 0
-7 -4 -4 -10z"/>
<path d="M6115 2056 c-16 -7 -29 -16 -27 -19 6 -18 1 -47 -9 -47 -5 0 -8 4 -4
9 7 13 -14 25 -42 24 -51 -2 -56 -3 -49 -10 8 -9 14 -10 51 -12 14 0 25 -5 25
-10 0 -5 -6 -9 -12 -8 -31 1 -48 -4 -48 -13 0 -15 54 -12 76 5 10 8 30 15 44
16 25 2 25 2 2 6 -16 3 -22 9 -18 20 3 8 6 19 6 24 0 5 11 9 25 9 20 0 25 -5
25 -25 0 -16 6 -25 15 -25 18 0 20 41 3 58 -15 15 -25 15 -63 -2z"/>
<path d="M4872 1648 c5 -15 67 -18 71 -3 1 6 -15 11 -37 13 -28 3 -37 0 -34
-10z"/>
<path d="M5078 1653 c7 -3 16 -2 19 1 4 3 -2 6 -13 5 -11 0 -14 -3 -6 -6z"/>
<path d="M3608 1233 c7 -3 16 -2 19 1 4 3 -2 6 -13 5 -11 0 -14 -3 -6 -6z"/>
<path d="M7313 983 c-14 -5 -8 -50 9 -68 6 -6 7 -4 3 8 -4 10 -2 17 4 17 6 0
11 11 11 25 0 25 -4 28 -27 18z"/>
<path d="M3671 944 c0 -11 3 -14 6 -6 3 7 2 16 -1 19 -3 4 -6 -2 -5 -13z"/>
<path d="M3930 912 c-24 -19 -19 -52 9 -53 12 0 10 -3 -6 -11 -32 -16 -31 -56
3 -68 17 -7 32 -7 45 0 23 13 25 48 3 57 -13 5 -12 8 5 25 26 23 26 30 3 51
-23 21 -35 21 -62 -1z"/>
<path d="M4022 874 c-26 -18 -27 -27 -7 -47 13 -13 13 -16 0 -27 -20 -16 -19
-40 2 -55 15 -11 15 -13 -5 -19 -27 -9 -29 -42 -3 -56 31 -16 59 -12 72 12 10
18 8 24 -11 40 -17 13 -18 18 -7 18 26 0 38 32 20 52 -14 16 -14 18 1 24 21 8
21 43 -1 60 -23 17 -34 17 -61 -2z"/>
<path d="M4102 758 c-15 -15 -16 -45 -1 -53 7 -5 4 -14 -7 -27 -25 -27 -7 -52
39 -56 29 -3 37 1 42 18 4 11 1 27 -5 35 -9 11 -9 18 4 30 20 21 20 28 -2 48
-22 20 -53 22 -70 5z"/>
<path d="M3279 538 c-128 -45 -115 -33 -177 -168 -23 -51 -28 -69 -19 -84 9
-18 15 -10 48 58 22 43 39 84 39 90 0 26 49 56 153 91 59 21 107 41 107 46 0
15 -32 8 -151 -33z m-149 -172 c0 -3 -4 -8 -10 -11 -5 -3 -10 -1 -10 4 0 6 5
11 10 11 6 0 10 -2 10 -4z"/>
<path d="M3353 423 c-29 -6 -31 -9 -103 -166 -56 -122 -62 -140 -49 -153 13
-13 24 3 88 136 40 83 81 155 92 161 10 5 19 14 19 19 0 10 -8 11 -47 3z"/>
<path d="M3510 400 c0 -12 28 -25 36 -17 3 3 -4 10 -15 17 -15 7 -21 7 -21 0z"/>
<path d="M3457 384 c-34 -12 -76 -48 -77 -66 0 -7 -53 -126 -71 -161 -7 -14
-5 -17 13 -17 19 0 31 16 67 89 24 49 41 93 38 98 -3 5 14 18 39 29 24 10 44
22 44 26 0 14 -16 15 -53 2z"/>
<path d="M2435 290 c-62 -23 -127 -25 -191 -5 -27 8 -62 15 -77 15 -44 0 -660
-209 -672 -228 -5 -9 -23 -29 -38 -44 l-28 -27 417 0 416 -1 -15 23 c-10 14
-24 21 -41 20 -15 -1 -24 2 -21 8 13 20 51 9 68 -21 11 -18 26 -30 39 -30 19
0 316 97 327 106 2 2 -3 12 -11 21 -8 10 -27 41 -43 68 -15 28 -29 51 -30 53
-2 3 -197 -61 -240 -78 -11 -5 -57 -21 -103 -36 -67 -22 -86 -34 -98 -56 -16
-31 -61 -58 -98 -58 -58 0 -101 43 -89 89 4 15 -1 23 -18 30 -17 7 -19 10 -7
10 9 1 20 -4 23 -10 5 -7 15 -5 32 6 28 19 107 22 127 6 9 -8 28 -5 67 10 30
11 90 31 134 45 44 14 94 31 110 38 17 8 51 19 78 27 26 7 47 19 47 26 0 16
-3 16 -65 -7z m-615 -170 c-8 -5 -19 -10 -25 -10 -5 0 -3 5 5 10 8 5 20 10 25
10 6 0 3 -5 -5 -10z m317 -96 c-3 -3 -12 -4 -19 -1 -8 3 -5 6 6 6 11 1 17 -2
13 -5z"/>
<path d="M3042 247 c-24 -53 -29 -56 -224 -122 -168 -57 -162 -53 -137 -93
l21 -32 132 0 133 0 54 113 c71 148 70 142 55 163 -12 16 -15 13 -34 -29z"/>
<path d="M3265 65 c-30 -64 -30 -63 -7 -61 31 2 68 75 45 89 -5 2 -3 2 4 1 21
-5 24 13 3 19 -16 4 -24 -5 -45 -48z"/>
<path d="M5858 109 c-39 -22 -1 -109 46 -109 20 0 24 6 30 50 4 28 4 55 1 60
-8 13 -55 12 -77 -1z"/>
<path d="M1379 86 c10 -11 9 -16 -5 -24 -25 -14 -1 -24 30 -12 14 5 26 13 26
18 0 14 -24 32 -43 32 -16 0 -17 -3 -8 -14z"/>
<path d="M3154 58 c-10 -24 -20 -46 -22 -50 -2 -5 7 -8 21 -8 19 0 28 8 40 38
10 26 12 41 5 50 -17 20 -25 14 -44 -30z"/>
<path d="M5957 90 c-3 -8 -8 -32 -12 -52 l-6 -38 46 0 c55 0 57 12 11 66 -25
29 -36 35 -39 24z"/>
<path d="M2540 29 l-75 -28 113 0 113 -1 -23 30 c-26 36 -31 36 -128 -1z"/>
</g>
</svg>
